<?xml version="1.0" encoding="UTF-8" standalone="no"?>
<svg
   xmlns:dc="http://purl.org/dc/elements/1.1/"
   xmlns:cc="http://creativecommons.org/ns#"
   xmlns:rdf="http://www.w3.org/1999/02/22-rdf-syntax-ns#"
   xmlns:svg="http://www.w3.org/2000/svg"
   xmlns="http://www.w3.org/2000/svg"
   xmlns:sodipodi="http://sodipodi.sourceforge.net/DTD/sodipodi-0.dtd"
   xmlns:inkscape="http://www.inkscape.org/namespaces/inkscape"
   sodipodi:docname="surveyor.svg"
   inkscape:version="1.0 (4035a4fb49, 2020-05-01)"
   id="svg8"
   version="1.1"
   viewBox="0 0 210 297"
   height="297mm"
   width="210mm">
  <defs
     id="defs2">
    <rect
       id="rect871"
       height="71.248512"
       width="154.40327"
       y="98.462798"
       x="99.21875" />
    <rect
       id="rect865"
       height="18.331845"
       width="59.153274"
       y="124.73214"
       x="78.241072" />
    <rect
       id="rect859"
       height="25.513393"
       width="103.75446"
       y="105.64435"
       x="105.45536" />
    <rect
       id="rect853"
       height="43.845238"
       width="182.5625"
       y="106.58929"
       x="107.72321" />
  </defs>
  <sodipodi:namedview
     inkscape:window-maximized="1"
     inkscape:window-y="-8"
     inkscape:window-x="1912"
     inkscape:window-height="1027"
     inkscape:window-width="1920"
     showgrid="false"
     inkscape:document-rotation="0"
     inkscape:current-layer="layer1"
     inkscape:document-units="mm"
     inkscape:cy="502.22745"
     inkscape:cx="649.8171"
     inkscape:zoom="0.7"
     inkscape:pageshadow="2"
     inkscape:pageopacity="0.0"
     borderopacity="1.0"
     bordercolor="#666666"
     pagecolor="#ffffff"
     id="base" />
  <metadata
     id="metadata5">
    <rdf:RDF>
      <cc:Work
         rdf:about="">
        <dc:format>image/svg+xml</dc:format>
        <dc:type
           rdf:resource="http://purl.org/dc/dcmitype/StillImage" />
        <dc:title></dc:title>
      </cc:Work>
    </rdf:RDF>
  </metadata>
  <g
     id="layer1"
     inkscape:groupmode="layer"
     inkscape:label="Layer 1">
    <ellipse
       ry="35.01231"
       rx="26.459681"
       cy="122.14217"
       cx="69.222809"
       id="path14"
       style="fill:none;stroke-width:0.264583" />
    <path
       sodipodi:nodetypes="sssssssssssss"
       id="path16"
       d="m 50.675986,95.542992 c -0.279715,-3.719779 -8.566485,-6.308844 -18.16295,-8.885845 -7.32047,-1.965814 -10.475552,-8.156661 -8.611551,-12.75488 2.503997,-6.176998 10.749021,-7.490938 19.102515,-2.853326 4.010234,2.226363 9.207851,12.133975 19.427083,11.125365 5.081821,-0.50156 11.218404,-5.718071 15.276774,-9.068649 6.65016,-5.49035 10.711422,-9.347152 18.20223,-4.357343 9.476353,6.312426 21.586563,19.517345 10.465803,28.738606 -10.063619,8.34469 -28.100023,1.981516 -34.944083,9.27483 -1.866741,1.98928 -6.997331,13.34389 -8.092556,15.1078 -2.27613,3.66583 -5.920661,9.12283 -13.742425,9.77134 -13.581825,1.12608 -19.658978,-1.67241 -19.78065,-14.21216 -0.120493,-12.41832 21.896258,-8.10257 20.85981,-21.885738 z"
       style="fill:none;stroke:#c0c300;stroke-width:3;stroke-linecap:butt;stroke-linejoin:miter;stroke-miterlimit:4;stroke-dasharray:none;stroke-opacity:1" />
    <path
       sodipodi:nodetypes="ccssccc"
       id="path841"
       d="m 75.716087,81.39237 c 2.79533,-2.744772 10.21889,-9.050089 14.63666,-8.648936 4.20506,0.696402 8.61096,4.834336 10.131883,6.859981 2.23303,2.974066 6.26616,6.730942 4.7436,11.052152 -0.894,2.537318 -2.32419,3.037306 -5.830253,4.509199 -12.06998,4.403526 -38.835429,3.016036 -42.392897,-1.542776 -2.25976,-4.33852 6.536595,-2.933757 18.711007,-12.22962 z"
       style="fill:none;stroke:#8cb200;stroke-width:1.5;stroke-linecap:butt;stroke-linejoin:miter;stroke-miterlimit:4;stroke-dasharray:none;stroke-opacity:1" />
    <path
       sodipodi:nodetypes="csscccc"
       id="path843"
       d="m 44.273619,111.40765 c -2.423537,0.82819 -5.133866,1.05971 -7.431784,2.20085 -1.069189,0.53096 -1.501633,1.58124 -1.995585,2.398 -2.217785,3.66713 2.505578,9.09962 3.237233,10.01627 2.496934,2.56739 7.705992,1.89129 10.520681,1.1792 8.992604,-1.0308 12.882822,-17.9085 9.05592,-19.50389 -2.722426,-1.36512 -12.19155,3.86763 -14.898371,4.13478"
       style="fill:none;stroke:#8cb200;stroke-width:1;stroke-linecap:butt;stroke-linejoin:miter;stroke-miterlimit:4;stroke-dasharray:none;stroke-opacity:1" />
    <path
       sodipodi:nodetypes="ccscccc"
       id="path845"
       d="m 33.722348,73.242826 c -1.781611,0.04481 -3.871097,-0.330351 -5.354386,1.444623 -0.463249,2.283866 2.156798,4.8397 3.904172,6.005718 1.480088,0.987659 4.830085,1.894416 6.557413,2.244779 2.116206,0.147488 6.600458,1.04569 7.846667,0.09757 0.762752,-0.678729 0.114376,-1.681374 -0.433053,-2.374598 -3.937678,-4.528261 -7.131427,-7.123114 -12.520813,-7.418087 z"
       style="fill:none;stroke:#8cb200;stroke-width:1;stroke-linecap:butt;stroke-linejoin:miter;stroke-miterlimit:4;stroke-dasharray:none;stroke-opacity:1" />
    <path
       sodipodi:nodetypes="csssssc"
       id="path847"
       d="m 45.682515,114.45307 c -2.055803,0.8485 -1.531946,0.14549 -3.484197,1.23366 -3.148046,1.75472 -2.018725,7.0794 0.790375,8.00808 3.273618,1.08225 4.284182,0.65107 5.993751,-0.63839 2.851104,-2.15047 4.499516,-5.01373 2.83135,-8.0065 -0.194258,-0.34851 -0.523294,-0.91754 -0.891996,-1.12956 -1.387984,-0.79816 -4.889437,0.49762 -6.420459,0.91069"
       style="fill:none;stroke:#5ac000;stroke-width:2;stroke-linecap:butt;stroke-linejoin:miter;stroke-miterlimit:4;stroke-dasharray:none;stroke-opacity:1" />
    <path
       sodipodi:nodetypes="csscccc"
       id="path849"
       d="m 86.764186,81.778594 c 1.919769,-0.968519 4.14088,-0.719269 5.853417,0.03718 1.887985,0.833958 6.829685,3.583708 4.828629,6.649003 -2.877967,4.408581 -13.356326,3.488625 -16.045025,3.810935 -1.21472,0.113567 -4.729993,0.272995 -5.899701,-1.971595 -1.389479,-2.588869 8.169431,-6.886249 11.26268,-8.52552 z"
       style="fill:none;stroke:#5ac000;stroke-width:2.0005;stroke-linecap:butt;stroke-linejoin:miter;stroke-miterlimit:4;stroke-dasharray:none;stroke-opacity:1" />
    <text
       style="font-style:normal;font-weight:normal;font-size:50.8px;line-height:1.25;font-family:sans-serif;white-space:pre;shape-inside:url(#rect853);fill:#000000;fill-opacity:1;stroke:none;"
       id="text851"
       xml:space="preserve"><tspan
         style="visibility:hidden"
         x="107.72266"
         y="196.77997"><tspan
           dx="0 26.09453 28.475782 19.049995 25.400002 27.185936 25.102348 28.773438"
           style="font-style:normal;font-variant:normal;font-weight:bold;font-stretch:normal;font-size:50.8px;font-family:Roboto;-inkscape-font-specification:'Roboto Bold'">surveyor</tspan></tspan></text>
    <text
       style="font-style:normal;font-variant:normal;font-weight:bold;font-stretch:normal;font-size:24.69444444px;line-height:1.25;font-family:Roboto;-inkscape-font-specification:'Roboto Bold';white-space:pre;shape-inside:url(#rect859);fill:#000000;fill-opacity:1;stroke:none;"
       id="text857"
       xml:space="preserve"><tspan
         style="visibility:hidden"
         x="105.45508"
         y="152.76584"><tspan
           style="font-style:normal;font-variant:normal;font-weight:bold;font-stretch:normal;font-size:24.6944px;font-family:Roboto;-inkscape-font-specification:'Roboto Bold'">s</tspan></tspan></text>
    <text
       style="fill:black;fill-opacity:1;line-height:1.25;stroke:none;font-family:sans-serif;font-style:normal;font-weight:normal;font-size:10.58333333px;white-space:pre;shape-inside:url(#rect865);"
       id="text863"
       xml:space="preserve" />
    <text
       transform="translate(-22.679921,3.0696657)"
       style="font-style:normal;font-weight:normal;font-size:31.75px;line-height:1.25;font-family:sans-serif;white-space:pre;shape-inside:url(#rect871);fill:#008000;fill-opacity:1;stroke:none;"
       id="text869"
       xml:space="preserve"><tspan
         x="99.21875"
         y="127.42938"><tspan
           style="font-style:normal;font-variant:normal;font-weight:bold;font-stretch:normal;font-size:31.75px;font-family:Roboto;-inkscape-font-specification:'Roboto Bold';fill:#008000">surveyor</tspan></tspan></text>
  </g>
</svg>
